<?xml version="1.0" standalone="no"?><!DOCTYPE svg PUBLIC "-//W3C//DTD SVG 1.1//EN" "http://www.w3.org/Graphics/SVG/1.1/DTD/svg11.dtd">
<svg preserveAspectRatio="xMinYMin meet" width="100%" height="100%" viewBox="0 0 560.000 420.000"   version="1.1" xmlns="http://www.w3.org/2000/svg" xmlns:xlink="http://www.w3.org/1999/xlink">
  <desc>Matlab Figure Converted by PLOT2SVG written by Juerg Schwizer</desc>
  <rect x="0" y="0" width="560.000" height="420.000" fill="#ffffff" stroke="none" />
  <g>
  <clipPath id="ID000072">
    <rect x="72.800" y="31.500" width="434.000" height="342.300"/>
  </clipPath>
    <rect x="72.800" y="31.500" width="434.000" height="342.300" fill="#ffffff" fill-opacity="1.00" stroke="#ffffff" stroke-width="0.0pt" stroke-opacity="0"/>
    <g>
<g clip-path="url(#ID000072)">
      <polyline fill="none" stroke="#000000" stroke-width="0.5pt" stroke-dasharray="none" points="72.800,373.800 77.140,373.800 81.480,373.800 85.820,373.800 90.160,373.800 94.500,373.800 98.840,373.800 103.180,373.800 107.520,373.800 111.860,373.800 116.200,373.800 120.540,373.800 124.880,373.800 129.220,373.800 133.560,373.800 137.900,373.800 142.240,373.800 146.580,373.800 150.920,373.800 155.260,373.800 159.600,373.800 163.940,373.800 168.280,373.800 172.620,373.800 176.960,373.800 181.300,373.800 185.640,373.800 189.980,373.799 194.320,373.799 198.660,373.798 203.000,373.798 207.340,373.796 211.680,373.794 216.020,373.791 220.360,373.787 224.700,373.780 229.040,373.772 233.380,373.759 237.720,373.742 242.060,373.719 246.400,373.687 250.740,373.646 255.080,373.591 259.420,373.520 263.760,373.428 268.100,373.311 272.440,373.164 276.780,372.979 281.120,372.750 285.460,372.468 289.800,372.124 294.140,371.709 298.480,371.210 302.820,370.616 307.160,369.913 311.500,369.087 315.840,368.124 320.180,367.007 324.520,365.721 328.860,364.249 333.200,362.573 337.540,360.676 341.880,358.541 346.220,356.151 350.560,353.488 354.900,350.537 359.240,347.281 363.580,343.704 367.920,339.795 372.260,335.538 376.600,330.923 380.940,325.940 385.280,320.579 389.620,314.833 393.960,308.698 398.300,302.168 402.640,295.243 406.980,287.921 411.320,280.204 415.660,272.096 420.000,263.601 424.340,254.726 428.680,245.479 433.020,235.869 437.360,225.908 441.700,215.607 446.040,204.981 450.380,194.044 454.720,182.811 459.060,171.300 463.400,159.527 467.740,147.510 472.080,135.268 476.420,122.819 480.760,110.182 485.100,97.377 489.440,84.423 493.780,71.340 498.120,58.145 502.460,44.859 506.800,31.500 "/>
<g>
</g>
</g>
  <g transform="translate(289.300,22.593)">
    <g transform="rotate(-0.0)">
      <text x="0.000" y="0.000" font-family="Helvetica" text-anchor="middle" font-size="10.0pt" fill="#000000" >Output NL | b=-7.279929 | c=-26.643195</text>
    </g>
  </g>
    </g>
    <g>
      <polyline fill="none" stroke="#000000" stroke-width="0.5pt" stroke-dasharray="none" points="72.800,373.800 506.800,373.800 "/>
      <polyline fill="none" stroke="#000000" stroke-width="0.5pt" stroke-dasharray="none" points="76.503,373.800 76.503,368.200 "/>
      <polyline fill="none" stroke="#000000" stroke-width="0.5pt" stroke-dasharray="none" points="142.514,373.800 142.514,368.200 "/>
      <polyline fill="none" stroke="#000000" stroke-width="0.5pt" stroke-dasharray="none" points="208.526,373.800 208.526,368.200 "/>
      <polyline fill="none" stroke="#000000" stroke-width="0.5pt" stroke-dasharray="none" points="274.537,373.800 274.537,368.200 "/>
      <polyline fill="none" stroke="#000000" stroke-width="0.5pt" stroke-dasharray="none" points="340.548,373.800 340.548,368.200 "/>
      <polyline fill="none" stroke="#000000" stroke-width="0.5pt" stroke-dasharray="none" points="406.560,373.800 406.560,368.200 "/>
      <polyline fill="none" stroke="#000000" stroke-width="0.5pt" stroke-dasharray="none" points="472.571,373.800 472.571,368.200 "/>
  <g transform="translate(76.503,386.800)">
    <g transform="rotate(-0.0)">
      <text x="0.000" y="0.000" font-family="Helvetica" text-anchor="middle" font-size="10.0pt" fill="#000000" >-0.06</text>
    </g>
  </g>
  <g transform="translate(142.514,386.800)">
    <g transform="rotate(-0.0)">
      <text x="0.000" y="0.000" font-family="Helvetica" text-anchor="middle" font-size="10.0pt" fill="#000000" >-0.04</text>
    </g>
  </g>
  <g transform="translate(208.526,386.800)">
    <g transform="rotate(-0.0)">
      <text x="0.000" y="0.000" font-family="Helvetica" text-anchor="middle" font-size="10.0pt" fill="#000000" >-0.02</text>
    </g>
  </g>
  <g transform="translate(274.537,386.800)">
    <g transform="rotate(-0.0)">
      <text x="0.000" y="0.000" font-family="Helvetica" text-anchor="middle" font-size="10.0pt" fill="#000000" >0</text>
    </g>
  </g>
  <g transform="translate(340.548,386.800)">
    <g transform="rotate(-0.0)">
      <text x="0.000" y="0.000" font-family="Helvetica" text-anchor="middle" font-size="10.0pt" fill="#000000" >0.02</text>
    </g>
  </g>
  <g transform="translate(406.560,386.800)">
    <g transform="rotate(-0.0)">
      <text x="0.000" y="0.000" font-family="Helvetica" text-anchor="middle" font-size="10.0pt" fill="#000000" >0.04</text>
    </g>
  </g>
  <g transform="translate(472.571,386.800)">
    <g transform="rotate(-0.0)">
      <text x="0.000" y="0.000" font-family="Helvetica" text-anchor="middle" font-size="10.0pt" fill="#000000" >0.06</text>
    </g>
  </g>
      <polyline fill="none" stroke="#000000" stroke-width="0.5pt" stroke-dasharray="none" points="72.800,373.800 72.800,31.500 "/>
      <polyline fill="none" stroke="#000000" stroke-width="0.5pt" stroke-dasharray="none" points="72.800,321.527 78.400,321.527 "/>
      <polyline fill="none" stroke="#000000" stroke-width="0.5pt" stroke-dasharray="none" points="72.800,269.254 78.400,269.254 "/>
      <polyline fill="none" stroke="#000000" stroke-width="0.5pt" stroke-dasharray="none" points="72.800,216.980 78.400,216.980 "/>
      <polyline fill="none" stroke="#000000" stroke-width="0.5pt" stroke-dasharray="none" points="72.800,164.707 78.400,164.707 "/>
      <polyline fill="none" stroke="#000000" stroke-width="0.5pt" stroke-dasharray="none" points="72.800,112.434 78.400,112.434 "/>
      <polyline fill="none" stroke="#000000" stroke-width="0.5pt" stroke-dasharray="none" points="72.800,60.161 78.400,60.161 "/>
  <g transform="translate(67.800,324.527)">
    <g transform="rotate(-0.0)">
      <text x="0.000" y="0.000" font-family="Helvetica" text-anchor="end" font-size="10.0pt" fill="#000000" >0.05</text>
    </g>
  </g>
  <g transform="translate(67.800,272.254)">
    <g transform="rotate(-0.0)">
      <text x="0.000" y="0.000" font-family="Helvetica" text-anchor="end" font-size="10.0pt" fill="#000000" >0.1</text>
    </g>
  </g>
  <g transform="translate(67.800,219.980)">
    <g transform="rotate(-0.0)">
      <text x="0.000" y="0.000" font-family="Helvetica" text-anchor="end" font-size="10.0pt" fill="#000000" >0.15</text>
    </g>
  </g>
  <g transform="translate(67.800,167.707)">
    <g transform="rotate(-0.0)">
      <text x="0.000" y="0.000" font-family="Helvetica" text-anchor="end" font-size="10.0pt" fill="#000000" >0.2</text>
    </g>
  </g>
  <g transform="translate(67.800,115.434)">
    <g transform="rotate(-0.0)">
      <text x="0.000" y="0.000" font-family="Helvetica" text-anchor="end" font-size="10.0pt" fill="#000000" >0.25</text>
    </g>
  </g>
  <g transform="translate(67.800,63.161)">
    <g transform="rotate(-0.0)">
      <text x="0.000" y="0.000" font-family="Helvetica" text-anchor="end" font-size="10.0pt" fill="#000000" >0.3</text>
    </g>
  </g>
    </g>
  </g>
</svg>
