<?xml version="1.0" encoding="UTF-8" standalone="no"?>
<svg
   xmlns:dc="http://purl.org/dc/elements/1.1/"
   xmlns:cc="http://creativecommons.org/ns#"
   xmlns:rdf="http://www.w3.org/1999/02/22-rdf-syntax-ns#"
   xmlns:svg="http://www.w3.org/2000/svg"
   xmlns="http://www.w3.org/2000/svg"
   xmlns:sodipodi="http://sodipodi.sourceforge.net/DTD/sodipodi-0.dtd"
   xmlns:inkscape="http://www.inkscape.org/namespaces/inkscape"
   preserveAspectRatio="xMinYMin meet"
   width="100%"
   height="100%"
   viewBox="0 0 560.000 420.000"
   version="1.1"
   id="svg2"
   inkscape:version="0.47 r22583"
   sodipodi:docname="nl_pupi0414_10_conspecific_stft.svg">
  <metadata
     id="metadata151">
    <rdf:RDF>
      <cc:Work
         rdf:about="">
        <dc:format>image/svg+xml</dc:format>
        <dc:type
           rdf:resource="http://purl.org/dc/dcmitype/StillImage" />
      </cc:Work>
    </rdf:RDF>
  </metadata>
  <defs
     id="defs149">
    <inkscape:perspective
       sodipodi:type="inkscape:persp3d"
       inkscape:vp_x="0 : 210 : 1"
       inkscape:vp_y="0 : 1000 : 0"
       inkscape:vp_z="560 : 210 : 1"
       inkscape:persp3d-origin="280 : 140 : 1"
       id="perspective153" />
    <clipPath
       id="ID000082">
      <rect
         id="rect11"
         height="342.300"
         width="434.000"
         y="31.500"
         x="72.800" />
    </clipPath>
  </defs>
  <sodipodi:namedview
     pagecolor="#ffffff"
     bordercolor="#666666"
     borderopacity="1"
     objecttolerance="10"
     gridtolerance="10"
     guidetolerance="10"
     inkscape:pageopacity="0"
     inkscape:pageshadow="2"
     inkscape:window-width="1064"
     inkscape:window-height="755"
     id="namedview147"
     showgrid="false"
     inkscape:zoom="0.56190476"
     inkscape:cx="280"
     inkscape:cy="210"
     inkscape:window-x="0"
     inkscape:window-y="0"
     inkscape:window-maximized="0"
     inkscape:current-layer="svg2" />
  <desc
     id="desc4">Matlab Figure Converted by PLOT2SVG written by Juerg Schwizer</desc>
  <rect
     style="fill:#ffffff;fill-opacity:1;stroke:#ffffff;stroke-width:0pt;stroke-opacity:0"
     id="rect13"
     height="342.29999"
     width="434"
     y="31.5"
     x="72.800003" />
  <g
     clip-path="url(#ID000082)"
     id="g17">
    <polyline
       points="72.800,373.800 77.140,373.800 81.480,373.800 85.820,373.800 90.160,373.800 94.500,373.800 98.840,373.800 103.180,373.800 107.520,373.800 111.860,373.800 116.200,373.800 120.540,373.800 124.880,373.800 129.220,373.800 133.560,373.800 137.900,373.800 142.240,373.800 146.580,373.800 150.920,373.800 155.260,373.800 159.600,373.800 163.940,373.800 168.280,373.800 172.620,373.800 176.960,373.800 181.300,373.800 185.640,373.800 189.980,373.799 194.320,373.798 198.660,373.796 203.000,373.791 207.340,373.784 211.680,373.771 216.020,373.750 220.360,373.717 224.700,373.664 229.040,373.584 233.380,373.466 237.720,373.296 242.060,373.059 246.400,372.733 250.740,372.297 255.080,371.723 259.420,370.983 263.760,370.047 268.100,368.881 272.440,367.454 276.780,365.732 281.120,363.684 285.460,361.281 289.800,358.497 294.140,355.309 298.480,351.700 302.820,347.658 307.160,343.174 311.500,338.249 315.840,332.886 320.180,327.094 324.520,320.889 328.860,314.290 333.200,307.321 337.540,300.009 341.880,292.386 346.220,284.484 350.560,276.338 354.900,267.984 359.240,259.459 363.580,250.799 367.920,242.040 372.260,233.217 376.600,224.364 380.940,215.513 385.280,206.694 389.620,197.936 393.960,189.265 398.300,180.703 402.640,172.273 406.980,163.994 411.320,155.882 415.660,147.952 420.000,140.217 424.340,132.686 428.680,125.369 433.020,118.271 437.360,111.398 441.700,104.752 446.040,98.337 450.380,92.153 454.720,86.199 459.060,80.474 463.400,74.976 467.740,69.701 472.080,64.646 476.420,59.806 480.760,55.176 485.100,50.751 489.440,46.526 493.780,42.495 498.120,38.650 502.460,34.988 506.800,31.500 "
       id="polyline19"
       style="fill:none;stroke:#000000;stroke-width:0.5pt;stroke-dasharray:none" />
    <g
       id="g21" />
  </g>
  <g
     transform="translate(289.3,23.593)"
     id="g23">
    <g
       id="g25">
      <text
         x="0"
         y="0"
         font-size="10.0pt"
         id="text27"
         style="font-size:12.5px;text-anchor:middle;fill:#000000;font-family:Helvetica">Output NL | b=-0.111938 | c=-0.979008</text>
    </g>
  </g>
  <polyline
     points="72.800,373.800 506.800,373.800 "
     id="polyline31"
     style="fill:none;stroke:#000000;stroke-width:0.5pt;stroke-dasharray:none" />
  <polyline
     points="107.650,373.800 107.650,368.200 "
     id="polyline33"
     style="fill:none;stroke:#000000;stroke-width:0.5pt;stroke-dasharray:none" />
  <polyline
     points="179.037,373.800 179.037,368.200 "
     id="polyline35"
     style="fill:none;stroke:#000000;stroke-width:0.5pt;stroke-dasharray:none" />
  <polyline
     points="250.423,373.800 250.423,368.200 "
     id="polyline37"
     style="fill:none;stroke:#000000;stroke-width:0.5pt;stroke-dasharray:none" />
  <polyline
     points="321.810,373.800 321.810,368.200 "
     id="polyline39"
     style="fill:none;stroke:#000000;stroke-width:0.5pt;stroke-dasharray:none" />
  <polyline
     points="393.196,373.800 393.196,368.200 "
     id="polyline41"
     style="fill:none;stroke:#000000;stroke-width:0.5pt;stroke-dasharray:none" />
  <polyline
     points="464.583,373.800 464.583,368.200 "
     id="polyline43"
     style="fill:none;stroke:#000000;stroke-width:0.5pt;stroke-dasharray:none" />
  <g
     transform="translate(107.65,386.8)"
     id="g45">
    <g
       id="g47">
      <text
         x="0"
         y="0"
         font-size="10.0pt"
         id="text49"
         style="font-size:12.5px;text-anchor:middle;fill:#000000;font-family:Helvetica">-6</text>
    </g>
  </g>
  <g
     transform="translate(179.037,386.8)"
     id="g51">
    <g
       id="g53">
      <text
         x="0"
         y="0"
         font-size="10.0pt"
         id="text55"
         style="font-size:12.5px;text-anchor:middle;fill:#000000;font-family:Helvetica">-5</text>
    </g>
  </g>
  <g
     transform="translate(250.423,386.8)"
     id="g57">
    <g
       id="g59">
      <text
         x="0"
         y="0"
         font-size="10.0pt"
         id="text61"
         style="font-size:12.5px;text-anchor:middle;fill:#000000;font-family:Helvetica">-4</text>
    </g>
  </g>
  <g
     transform="translate(321.81,386.8)"
     id="g63">
    <g
       id="g65">
      <text
         x="0"
         y="0"
         font-size="10.0pt"
         id="text67"
         style="font-size:12.5px;text-anchor:middle;fill:#000000;font-family:Helvetica">-3</text>
    </g>
  </g>
  <g
     transform="translate(393.196,386.8)"
     id="g69">
    <g
       id="g71">
      <text
         x="0"
         y="0"
         font-size="10.0pt"
         id="text73"
         style="font-size:12.5px;text-anchor:middle;fill:#000000;font-family:Helvetica">-2</text>
    </g>
  </g>
  <g
     transform="translate(464.583,386.8)"
     id="g75">
    <g
       id="g77">
      <text
         x="0"
         y="0"
         font-size="10.0pt"
         id="text79"
         style="font-size:12.5px;text-anchor:middle;fill:#000000;font-family:Helvetica">-1</text>
    </g>
  </g>
  <polyline
     points="72.800,373.800 72.800,31.500 "
     id="polyline81"
     style="fill:none;stroke:#000000;stroke-width:0.5pt;stroke-dasharray:none" />
  <polyline
     points="72.800,333.349 78.400,333.349 "
     id="polyline83"
     style="fill:none;stroke:#000000;stroke-width:0.5pt;stroke-dasharray:none" />
  <polyline
     points="72.800,292.897 78.400,292.897 "
     id="polyline85"
     style="fill:none;stroke:#000000;stroke-width:0.5pt;stroke-dasharray:none" />
  <polyline
     points="72.800,252.446 78.400,252.446 "
     id="polyline87"
     style="fill:none;stroke:#000000;stroke-width:0.5pt;stroke-dasharray:none" />
  <polyline
     points="72.800,211.995 78.400,211.995 "
     id="polyline89"
     style="fill:none;stroke:#000000;stroke-width:0.5pt;stroke-dasharray:none" />
  <polyline
     points="72.800,171.543 78.400,171.543 "
     id="polyline91"
     style="fill:none;stroke:#000000;stroke-width:0.5pt;stroke-dasharray:none" />
  <polyline
     points="72.800,131.092 78.400,131.092 "
     id="polyline93"
     style="fill:none;stroke:#000000;stroke-width:0.5pt;stroke-dasharray:none" />
  <polyline
     points="72.800,90.641 78.400,90.641 "
     id="polyline95"
     style="fill:none;stroke:#000000;stroke-width:0.5pt;stroke-dasharray:none" />
  <polyline
     points="72.800,50.189 78.400,50.189 "
     id="polyline97"
     style="fill:none;stroke:#000000;stroke-width:0.5pt;stroke-dasharray:none" />
  <g
     transform="translate(67.8,336.349)"
     id="g99">
    <g
       id="g101">
      <text
         x="0"
         y="0"
         font-size="10.0pt"
         id="text103"
         style="font-size:12.5px;text-anchor:end;fill:#000000;font-family:Helvetica">0.1</text>
    </g>
  </g>
  <g
     transform="translate(67.8,295.897)"
     id="g105">
    <g
       id="g107">
      <text
         x="0"
         y="0"
         font-size="10.0pt"
         id="text109"
         style="font-size:12.5px;text-anchor:end;fill:#000000;font-family:Helvetica">0.2</text>
    </g>
  </g>
  <g
     transform="translate(67.8,255.446)"
     id="g111">
    <g
       id="g113">
      <text
         x="0"
         y="0"
         font-size="10.0pt"
         id="text115"
         style="font-size:12.5px;text-anchor:end;fill:#000000;font-family:Helvetica">0.3</text>
    </g>
  </g>
  <g
     transform="translate(67.8,214.995)"
     id="g117">
    <g
       id="g119">
      <text
         x="0"
         y="0"
         font-size="10.0pt"
         id="text121"
         style="font-size:12.5px;text-anchor:end;fill:#000000;font-family:Helvetica">0.4</text>
    </g>
  </g>
  <g
     transform="translate(67.8,174.543)"
     id="g123">
    <g
       id="g125">
      <text
         x="0"
         y="0"
         font-size="10.0pt"
         id="text127"
         style="font-size:12.5px;text-anchor:end;fill:#000000;font-family:Helvetica">0.5</text>
    </g>
  </g>
  <g
     transform="translate(67.8,134.092)"
     id="g129">
    <g
       id="g131">
      <text
         x="0"
         y="0"
         font-size="10.0pt"
         id="text133"
         style="font-size:12.5px;text-anchor:end;fill:#000000;font-family:Helvetica">0.6</text>
    </g>
  </g>
  <g
     transform="translate(67.8,93.641)"
     id="g135">
    <g
       id="g137">
      <text
         x="0"
         y="0"
         font-size="10.0pt"
         id="text139"
         style="font-size:12.5px;text-anchor:end;fill:#000000;font-family:Helvetica">0.7</text>
    </g>
  </g>
  <g
     transform="translate(67.8,53.189)"
     id="g141">
    <g
       id="g143">
      <text
         x="0"
         y="0"
         font-size="10.0pt"
         id="text145"
         style="font-size:12.5px;text-anchor:end;fill:#000000;font-family:Helvetica">0.8</text>
    </g>
  </g>
</svg>
