<?xml version="1.0" encoding="UTF-8" standalone="no"?>
<svg
   xmlns:dc="http://purl.org/dc/elements/1.1/"
   xmlns:cc="http://creativecommons.org/ns#"
   xmlns:rdf="http://www.w3.org/1999/02/22-rdf-syntax-ns#"
   xmlns:svg="http://www.w3.org/2000/svg"
   xmlns="http://www.w3.org/2000/svg"
   xmlns:sodipodi="http://sodipodi.sourceforge.net/DTD/sodipodi-0.dtd"
   xmlns:inkscape="http://www.inkscape.org/namespaces/inkscape"
   preserveAspectRatio="xMinYMin meet"
   width="100%"
   height="100%"
   viewBox="0 0 560.000 420.000"
   version="1.1"
   id="svg2"
   inkscape:version="0.47 r22583"
   sodipodi:docname="nl_pupu2122_2_B_conspecific_stft.svg">
  <metadata
     id="metadata159">
    <rdf:RDF>
      <cc:Work
         rdf:about="">
        <dc:format>image/svg+xml</dc:format>
        <dc:type
           rdf:resource="http://purl.org/dc/dcmitype/StillImage" />
      </cc:Work>
    </rdf:RDF>
  </metadata>
  <defs
     id="defs157">
    <inkscape:perspective
       sodipodi:type="inkscape:persp3d"
       inkscape:vp_x="0 : 210 : 1"
       inkscape:vp_y="0 : 1000 : 0"
       inkscape:vp_z="560 : 210 : 1"
       inkscape:persp3d-origin="280 : 140 : 1"
       id="perspective161" />
    <clipPath
       id="ID000052">
      <rect
         id="rect11"
         height="342.300"
         width="434.000"
         y="31.500"
         x="72.800" />
    </clipPath>
  </defs>
  <sodipodi:namedview
     pagecolor="#ffffff"
     bordercolor="#666666"
     borderopacity="1"
     objecttolerance="10"
     gridtolerance="10"
     guidetolerance="10"
     inkscape:pageopacity="0"
     inkscape:pageshadow="2"
     inkscape:window-width="1280"
     inkscape:window-height="949"
     id="namedview155"
     showgrid="false"
     inkscape:zoom="1.1238095"
     inkscape:cx="280"
     inkscape:cy="210"
     inkscape:window-x="0"
     inkscape:window-y="0"
     inkscape:window-maximized="1"
     inkscape:current-layer="svg2" />
  <desc
     id="desc4">Matlab Figure Converted by PLOT2SVG written by Juerg Schwizer</desc>
  <polyline
     style="fill:none;stroke:#000000;stroke-width:0.5pt;stroke-dasharray:none"
     id="polyline19"
     points="72.800,373.800 77.140,373.800 81.480,373.800 85.820,373.800 90.160,373.800 94.500,373.800 98.840,373.800 103.180,373.800 107.520,373.800 111.860,373.800 116.200,373.800 120.540,373.800 124.880,373.800 129.220,373.800 133.560,373.800 137.900,373.800 142.240,373.800 146.580,373.800 150.920,373.800 155.260,373.800 159.600,373.800 163.940,373.800 168.280,373.800 172.620,373.800 176.960,373.800 181.300,373.800 185.640,373.800 189.980,373.800 194.320,373.800 198.660,373.800 203.000,373.800 207.340,373.800 211.680,373.800 216.020,373.799 220.360,373.798 224.700,373.797 229.040,373.794 233.380,373.788 237.720,373.778 242.060,373.761 246.400,373.733 250.740,373.689 255.080,373.622 259.420,373.521 263.760,373.374 268.100,373.165 272.440,372.875 276.780,372.482 281.120,371.959 285.460,371.278 289.800,370.407 294.140,369.313 298.480,367.959 302.820,366.312 307.160,364.336 311.500,361.999 315.840,359.270 320.180,356.123 324.520,352.535 328.860,348.489 333.200,343.973 337.540,338.981 341.880,333.514 346.220,327.578 350.560,321.184 354.900,314.349 359.240,307.097 363.580,299.454 367.920,291.450 372.260,283.118 376.600,274.495 380.940,265.618 385.280,256.526 389.620,247.259 393.960,237.854 398.300,228.351 402.640,218.786 406.980,209.196 411.320,199.615 415.660,190.074 420.000,180.604 424.340,171.231 428.680,161.982 433.020,152.877 437.360,143.938 441.700,135.181 446.040,126.623 450.380,118.275 454.720,110.150 459.060,102.255 463.400,94.597 467.740,87.182 472.080,80.012 476.420,73.091 480.760,66.418 485.100,59.993 489.440,53.815 493.780,47.880 498.120,42.185 502.460,36.727 506.800,31.500 " />
  <g
     id="g21" />
  <g
     id="g25"
     transform="translate(289.3,23.593)">
    <text
       style="font-size:12.5px;text-anchor:middle;fill:#000000;font-family:Helvetica"
       id="text27"
       font-size="10.0pt"
       y="0"
       x="0">Output NL | b=-6.441986 | c=-14.231550</text>
  </g>
  <polyline
     points="72.800,373.800 506.800,373.800 "
     id="polyline31"
     style="fill:none;stroke:#000000;stroke-width:0.5pt;stroke-dasharray:none" />
  <polyline
     points="112.690,373.800 112.690,368.200 "
     id="polyline33"
     style="fill:none;stroke:#000000;stroke-width:0.5pt;stroke-dasharray:none" />
  <polyline
     points="164.870,373.800 164.870,368.200 "
     id="polyline35"
     style="fill:none;stroke:#000000;stroke-width:0.5pt;stroke-dasharray:none" />
  <polyline
     points="217.051,373.800 217.051,368.200 "
     id="polyline37"
     style="fill:none;stroke:#000000;stroke-width:0.5pt;stroke-dasharray:none" />
  <polyline
     points="269.232,373.800 269.232,368.200 "
     id="polyline39"
     style="fill:none;stroke:#000000;stroke-width:0.5pt;stroke-dasharray:none" />
  <polyline
     points="321.413,373.800 321.413,368.200 "
     id="polyline41"
     style="fill:none;stroke:#000000;stroke-width:0.5pt;stroke-dasharray:none" />
  <polyline
     points="373.594,373.800 373.594,368.200 "
     id="polyline43"
     style="fill:none;stroke:#000000;stroke-width:0.5pt;stroke-dasharray:none" />
  <polyline
     points="425.775,373.800 425.775,368.200 "
     id="polyline45"
     style="fill:none;stroke:#000000;stroke-width:0.5pt;stroke-dasharray:none" />
  <polyline
     points="477.956,373.800 477.956,368.200 "
     id="polyline47"
     style="fill:none;stroke:#000000;stroke-width:0.5pt;stroke-dasharray:none" />
  <g
     id="g51"
     transform="translate(112.69,386.8)">
    <text
       style="font-size:12.5px;text-anchor:middle;fill:#000000;font-family:Helvetica"
       id="text53"
       font-size="10.0pt"
       y="0"
       x="0">-0.15</text>
  </g>
  <g
     id="g57"
     transform="translate(164.87,386.8)">
    <text
       style="font-size:12.5px;text-anchor:middle;fill:#000000;font-family:Helvetica"
       id="text59"
       font-size="10.0pt"
       y="0"
       x="0">-0.1</text>
  </g>
  <g
     id="g63"
     transform="translate(217.051,386.8)">
    <text
       style="font-size:12.5px;text-anchor:middle;fill:#000000;font-family:Helvetica"
       id="text65"
       font-size="10.0pt"
       y="0"
       x="0">-0.05</text>
  </g>
  <g
     id="g69"
     transform="translate(269.232,386.8)">
    <text
       style="font-size:12.5px;text-anchor:middle;fill:#000000;font-family:Helvetica"
       id="text71"
       font-size="10.0pt"
       y="0"
       x="0">0</text>
  </g>
  <g
     id="g75"
     transform="translate(321.413,386.8)">
    <text
       style="font-size:12.5px;text-anchor:middle;fill:#000000;font-family:Helvetica"
       id="text77"
       font-size="10.0pt"
       y="0"
       x="0">0.05</text>
  </g>
  <g
     id="g81"
     transform="translate(373.594,386.8)">
    <text
       style="font-size:12.5px;text-anchor:middle;fill:#000000;font-family:Helvetica"
       id="text83"
       font-size="10.0pt"
       y="0"
       x="0">0.1</text>
  </g>
  <g
     id="g87"
     transform="translate(425.775,386.8)">
    <text
       style="font-size:12.5px;text-anchor:middle;fill:#000000;font-family:Helvetica"
       id="text89"
       font-size="10.0pt"
       y="0"
       x="0">0.15</text>
  </g>
  <g
     id="g93"
     transform="translate(477.956,386.8)">
    <text
       style="font-size:12.5px;text-anchor:middle;fill:#000000;font-family:Helvetica"
       id="text95"
       font-size="10.0pt"
       y="0"
       x="0">0.2</text>
  </g>
  <polyline
     points="72.800,373.800 72.800,31.500 "
     id="polyline97"
     style="fill:none;stroke:#000000;stroke-width:0.5pt;stroke-dasharray:none" />
  <polyline
     points="72.800,329.743 78.400,329.743 "
     id="polyline99"
     style="fill:none;stroke:#000000;stroke-width:0.5pt;stroke-dasharray:none" />
  <polyline
     points="72.800,285.686 78.400,285.686 "
     id="polyline101"
     style="fill:none;stroke:#000000;stroke-width:0.5pt;stroke-dasharray:none" />
  <polyline
     points="72.800,241.629 78.400,241.629 "
     id="polyline103"
     style="fill:none;stroke:#000000;stroke-width:0.5pt;stroke-dasharray:none" />
  <polyline
     points="72.800,197.572 78.400,197.572 "
     id="polyline105"
     style="fill:none;stroke:#000000;stroke-width:0.5pt;stroke-dasharray:none" />
  <polyline
     points="72.800,153.515 78.400,153.515 "
     id="polyline107"
     style="fill:none;stroke:#000000;stroke-width:0.5pt;stroke-dasharray:none" />
  <polyline
     points="72.800,109.458 78.400,109.458 "
     id="polyline109"
     style="fill:none;stroke:#000000;stroke-width:0.5pt;stroke-dasharray:none" />
  <polyline
     points="72.800,65.401 78.400,65.401 "
     id="polyline111"
     style="fill:none;stroke:#000000;stroke-width:0.5pt;stroke-dasharray:none" />
  <g
     id="g115"
     transform="translate(67.8,332.743)">
    <text
       style="font-size:12.5px;text-anchor:end;fill:#000000;font-family:Helvetica"
       id="text117"
       font-size="10.0pt"
       y="0"
       x="0">0.1</text>
  </g>
  <g
     id="g121"
     transform="translate(67.8,288.686)">
    <text
       style="font-size:12.5px;text-anchor:end;fill:#000000;font-family:Helvetica"
       id="text123"
       font-size="10.0pt"
       y="0"
       x="0">0.2</text>
  </g>
  <g
     id="g127"
     transform="translate(67.8,244.629)">
    <text
       style="font-size:12.5px;text-anchor:end;fill:#000000;font-family:Helvetica"
       id="text129"
       font-size="10.0pt"
       y="0"
       x="0">0.3</text>
  </g>
  <g
     id="g133"
     transform="translate(67.8,200.572)">
    <text
       style="font-size:12.5px;text-anchor:end;fill:#000000;font-family:Helvetica"
       id="text135"
       font-size="10.0pt"
       y="0"
       x="0">0.4</text>
  </g>
  <g
     id="g139"
     transform="translate(67.8,156.515)">
    <text
       style="font-size:12.5px;text-anchor:end;fill:#000000;font-family:Helvetica"
       id="text141"
       font-size="10.0pt"
       y="0"
       x="0">0.5</text>
  </g>
  <g
     id="g145"
     transform="translate(67.8,112.458)">
    <text
       style="font-size:12.5px;text-anchor:end;fill:#000000;font-family:Helvetica"
       id="text147"
       font-size="10.0pt"
       y="0"
       x="0">0.6</text>
  </g>
  <g
     id="g151"
     transform="translate(67.8,68.401)">
    <text
       style="font-size:12.5px;text-anchor:end;fill:#000000;font-family:Helvetica"
       id="text153"
       font-size="10.0pt"
       y="0"
       x="0">0.7</text>
  </g>
</svg>
