<?xml version="1.0" encoding="UTF-8" standalone="no"?>
<svg
   xmlns:dc="http://purl.org/dc/elements/1.1/"
   xmlns:cc="http://creativecommons.org/ns#"
   xmlns:rdf="http://www.w3.org/1999/02/22-rdf-syntax-ns#"
   xmlns:svg="http://www.w3.org/2000/svg"
   xmlns="http://www.w3.org/2000/svg"
   xmlns:sodipodi="http://sodipodi.sourceforge.net/DTD/sodipodi-0.dtd"
   xmlns:inkscape="http://www.inkscape.org/namespaces/inkscape"
   preserveAspectRatio="xMinYMin meet"
   width="100%"
   height="100%"
   viewBox="0 0 560.000 420.000"
   version="1.1"
   id="svg2"
   inkscape:version="0.47 r22583"
   sodipodi:docname="nl_ww1211_5_B_conspecific_stft.svg">
  <metadata
     id="metadata167">
    <rdf:RDF>
      <cc:Work
         rdf:about="">
        <dc:format>image/svg+xml</dc:format>
        <dc:type
           rdf:resource="http://purl.org/dc/dcmitype/StillImage" />
      </cc:Work>
    </rdf:RDF>
  </metadata>
  <defs
     id="defs165">
    <inkscape:perspective
       sodipodi:type="inkscape:persp3d"
       inkscape:vp_x="0 : 210 : 1"
       inkscape:vp_y="0 : 1000 : 0"
       inkscape:vp_z="560 : 210 : 1"
       inkscape:persp3d-origin="280 : 140 : 1"
       id="perspective169" />
    <clipPath
       id="ID000062">
      <rect
         id="rect11"
         height="342.300"
         width="434.000"
         y="31.500"
         x="72.800" />
    </clipPath>
  </defs>
  <sodipodi:namedview
     pagecolor="#ffffff"
     bordercolor="#666666"
     borderopacity="1"
     objecttolerance="10"
     gridtolerance="10"
     guidetolerance="10"
     inkscape:pageopacity="0"
     inkscape:pageshadow="2"
     inkscape:window-width="1280"
     inkscape:window-height="949"
     id="namedview163"
     showgrid="false"
     inkscape:zoom="0.56190476"
     inkscape:cx="280"
     inkscape:cy="210"
     inkscape:window-x="0"
     inkscape:window-y="0"
     inkscape:window-maximized="1"
     inkscape:current-layer="svg2" />
  <desc
     id="desc4">Matlab Figure Converted by PLOT2SVG written by Juerg Schwizer</desc>
  <g
     clip-path="url(#ID000062)"
     id="g17">
    <polyline
       points="72.800,373.800 77.140,373.800 81.480,373.800 85.820,373.800 90.160,373.800 94.500,373.800 98.840,373.800 103.180,373.800 107.520,373.800 111.860,373.800 116.200,373.800 120.540,373.800 124.880,373.800 129.220,373.800 133.560,373.800 137.900,373.800 142.240,373.800 146.580,373.800 150.920,373.800 155.260,373.800 159.600,373.799 163.940,373.799 168.280,373.798 172.620,373.798 176.960,373.796 181.300,373.794 185.640,373.791 189.980,373.787 194.320,373.781 198.660,373.772 203.000,373.760 207.340,373.744 211.680,373.722 216.020,373.692 220.360,373.653 224.700,373.601 229.040,373.534 233.380,373.448 237.720,373.339 242.060,373.202 246.400,373.031 250.740,372.820 255.080,372.562 259.420,372.248 263.760,371.870 268.100,371.418 272.440,370.883 276.780,370.252 281.120,369.514 285.460,368.658 289.800,367.669 294.140,366.536 298.480,365.244 302.820,363.780 307.160,362.130 311.500,360.281 315.840,358.221 320.180,355.935 324.520,353.412 328.860,350.641 333.200,347.610 337.540,344.310 341.880,340.733 346.220,336.870 350.560,332.716 354.900,328.266 359.240,323.516 363.580,318.463 367.920,313.106 372.260,307.447 376.600,301.487 380.940,295.229 385.280,288.679 389.620,281.841 393.960,274.723 398.300,267.333 402.640,259.681 406.980,251.776 411.320,243.630 415.660,235.256 420.000,226.665 424.340,217.871 428.680,208.888 433.020,199.731 437.360,190.413 441.700,180.950 446.040,171.357 450.380,161.648 454.720,151.840 459.060,141.946 463.400,131.981 467.740,121.961 472.080,111.900 476.420,101.811 480.760,91.708 485.100,81.604 489.440,71.512 493.780,61.444 498.120,51.412 502.460,41.427 506.800,31.500 "
       id="polyline19"
       style="fill:none;stroke:#000000;stroke-width:0.5pt;stroke-dasharray:none" />
    <g
       id="g21" />
  </g>
  <g
     transform="translate(289.3,23.593)"
     id="g23">
    <g
       id="g25">
      <text
         x="0"
         y="0"
         font-size="10.0pt"
         id="text27"
         style="font-size:12.5px;text-anchor:middle;fill:#000000;font-family:Helvetica">Output NL | b=-6.890247 | c=-22.735796</text>
    </g>
  </g>
  <polyline
     points="72.800,373.800 506.800,373.800 "
     id="polyline31"
     style="fill:none;stroke:#000000;stroke-width:0.5pt;stroke-dasharray:none" />
  <polyline
     points="81.089,373.800 81.089,368.200 "
     id="polyline33"
     style="fill:none;stroke:#000000;stroke-width:0.5pt;stroke-dasharray:none" />
  <polyline
     points="136.292,373.800 136.292,368.200 "
     id="polyline35"
     style="fill:none;stroke:#000000;stroke-width:0.5pt;stroke-dasharray:none" />
  <polyline
     points="191.494,373.800 191.494,368.200 "
     id="polyline37"
     style="fill:none;stroke:#000000;stroke-width:0.5pt;stroke-dasharray:none" />
  <polyline
     points="246.696,373.800 246.696,368.200 "
     id="polyline39"
     style="fill:none;stroke:#000000;stroke-width:0.5pt;stroke-dasharray:none" />
  <polyline
     points="301.899,373.800 301.899,368.200 "
     id="polyline41"
     style="fill:none;stroke:#000000;stroke-width:0.5pt;stroke-dasharray:none" />
  <polyline
     points="357.101,373.800 357.101,368.200 "
     id="polyline43"
     style="fill:none;stroke:#000000;stroke-width:0.5pt;stroke-dasharray:none" />
  <polyline
     points="412.304,373.800 412.304,368.200 "
     id="polyline45"
     style="fill:none;stroke:#000000;stroke-width:0.5pt;stroke-dasharray:none" />
  <polyline
     points="467.506,373.800 467.506,368.200 "
     id="polyline47"
     style="fill:none;stroke:#000000;stroke-width:0.5pt;stroke-dasharray:none" />
  <g
     transform="translate(81.089,386.8)"
     id="g49">
    <g
       id="g51">
      <text
         x="0"
         y="0"
         font-size="10.0pt"
         id="text53"
         style="font-size:12.5px;text-anchor:middle;fill:#000000;font-family:Helvetica">-0.06</text>
    </g>
  </g>
  <g
     transform="translate(136.292,386.8)"
     id="g55">
    <g
       id="g57">
      <text
         x="0"
         y="0"
         font-size="10.0pt"
         id="text59"
         style="font-size:12.5px;text-anchor:middle;fill:#000000;font-family:Helvetica">-0.04</text>
    </g>
  </g>
  <g
     transform="translate(191.494,386.8)"
     id="g61">
    <g
       id="g63">
      <text
         x="0"
         y="0"
         font-size="10.0pt"
         id="text65"
         style="font-size:12.5px;text-anchor:middle;fill:#000000;font-family:Helvetica">-0.02</text>
    </g>
  </g>
  <g
     transform="translate(246.696,386.8)"
     id="g67">
    <g
       id="g69">
      <text
         x="0"
         y="0"
         font-size="10.0pt"
         id="text71"
         style="font-size:12.5px;text-anchor:middle;fill:#000000;font-family:Helvetica">0</text>
    </g>
  </g>
  <g
     transform="translate(301.899,386.8)"
     id="g73">
    <g
       id="g75">
      <text
         x="0"
         y="0"
         font-size="10.0pt"
         id="text77"
         style="font-size:12.5px;text-anchor:middle;fill:#000000;font-family:Helvetica">0.02</text>
    </g>
  </g>
  <g
     transform="translate(357.101,386.8)"
     id="g79">
    <g
       id="g81">
      <text
         x="0"
         y="0"
         font-size="10.0pt"
         id="text83"
         style="font-size:12.5px;text-anchor:middle;fill:#000000;font-family:Helvetica">0.04</text>
    </g>
  </g>
  <g
     transform="translate(412.304,386.8)"
     id="g85">
    <g
       id="g87">
      <text
         x="0"
         y="0"
         font-size="10.0pt"
         id="text89"
         style="font-size:12.5px;text-anchor:middle;fill:#000000;font-family:Helvetica">0.06</text>
    </g>
  </g>
  <g
     transform="translate(467.506,386.8)"
     id="g91">
    <g
       id="g93">
      <text
         x="0"
         y="0"
         font-size="10.0pt"
         id="text95"
         style="font-size:12.5px;text-anchor:middle;fill:#000000;font-family:Helvetica">0.08</text>
    </g>
  </g>
  <polyline
     points="72.800,373.800 72.800,31.500 "
     id="polyline97"
     style="fill:none;stroke:#000000;stroke-width:0.5pt;stroke-dasharray:none" />
  <polyline
     points="72.800,335.380 78.400,335.380 "
     id="polyline99"
     style="fill:none;stroke:#000000;stroke-width:0.5pt;stroke-dasharray:none" />
  <polyline
     points="72.800,296.960 78.400,296.960 "
     id="polyline101"
     style="fill:none;stroke:#000000;stroke-width:0.5pt;stroke-dasharray:none" />
  <polyline
     points="72.800,258.540 78.400,258.540 "
     id="polyline103"
     style="fill:none;stroke:#000000;stroke-width:0.5pt;stroke-dasharray:none" />
  <polyline
     points="72.800,220.121 78.400,220.121 "
     id="polyline105"
     style="fill:none;stroke:#000000;stroke-width:0.5pt;stroke-dasharray:none" />
  <polyline
     points="72.800,181.701 78.400,181.701 "
     id="polyline107"
     style="fill:none;stroke:#000000;stroke-width:0.5pt;stroke-dasharray:none" />
  <polyline
     points="72.800,143.281 78.400,143.281 "
     id="polyline109"
     style="fill:none;stroke:#000000;stroke-width:0.5pt;stroke-dasharray:none" />
  <polyline
     points="72.800,104.861 78.400,104.861 "
     id="polyline111"
     style="fill:none;stroke:#000000;stroke-width:0.5pt;stroke-dasharray:none" />
  <polyline
     points="72.800,66.441 78.400,66.441 "
     id="polyline113"
     style="fill:none;stroke:#000000;stroke-width:0.5pt;stroke-dasharray:none" />
  <g
     transform="translate(67.8,338.38)"
     id="g115">
    <g
       id="g117">
      <text
         x="0"
         y="0"
         font-size="10.0pt"
         id="text119"
         style="font-size:12.5px;text-anchor:end;fill:#000000;font-family:Helvetica">0.05</text>
    </g>
  </g>
  <g
     transform="translate(67.8,299.96)"
     id="g121">
    <g
       id="g123">
      <text
         x="0"
         y="0"
         font-size="10.0pt"
         id="text125"
         style="font-size:12.5px;text-anchor:end;fill:#000000;font-family:Helvetica">0.1</text>
    </g>
  </g>
  <g
     transform="translate(67.8,261.54)"
     id="g127">
    <g
       id="g129">
      <text
         x="0"
         y="0"
         font-size="10.0pt"
         id="text131"
         style="font-size:12.5px;text-anchor:end;fill:#000000;font-family:Helvetica">0.15</text>
    </g>
  </g>
  <g
     transform="translate(67.8,223.121)"
     id="g133">
    <g
       id="g135">
      <text
         x="0"
         y="0"
         font-size="10.0pt"
         id="text137"
         style="font-size:12.5px;text-anchor:end;fill:#000000;font-family:Helvetica">0.2</text>
    </g>
  </g>
  <g
     transform="translate(67.8,184.701)"
     id="g139">
    <g
       id="g141">
      <text
         x="0"
         y="0"
         font-size="10.0pt"
         id="text143"
         style="font-size:12.5px;text-anchor:end;fill:#000000;font-family:Helvetica">0.25</text>
    </g>
  </g>
  <g
     transform="translate(67.8,146.281)"
     id="g145">
    <g
       id="g147">
      <text
         x="0"
         y="0"
         font-size="10.0pt"
         id="text149"
         style="font-size:12.5px;text-anchor:end;fill:#000000;font-family:Helvetica">0.3</text>
    </g>
  </g>
  <g
     transform="translate(67.8,107.861)"
     id="g151">
    <g
       id="g153">
      <text
         x="0"
         y="0"
         font-size="10.0pt"
         id="text155"
         style="font-size:12.5px;text-anchor:end;fill:#000000;font-family:Helvetica">0.35</text>
    </g>
  </g>
  <g
     transform="translate(67.8,69.441)"
     id="g157">
    <g
       id="g159">
      <text
         x="0"
         y="0"
         font-size="10.0pt"
         id="text161"
         style="font-size:12.5px;text-anchor:end;fill:#000000;font-family:Helvetica">0.4</text>
    </g>
  </g>
</svg>
