<?xml version="1.0" encoding="UTF-8" standalone="no"?>
<svg
   xmlns:dc="http://purl.org/dc/elements/1.1/"
   xmlns:cc="http://creativecommons.org/ns#"
   xmlns:rdf="http://www.w3.org/1999/02/22-rdf-syntax-ns#"
   xmlns:svg="http://www.w3.org/2000/svg"
   xmlns="http://www.w3.org/2000/svg"
   xmlns:sodipodi="http://sodipodi.sourceforge.net/DTD/sodipodi-0.dtd"
   xmlns:inkscape="http://www.inkscape.org/namespaces/inkscape"
   preserveAspectRatio="xMinYMin meet"
   width="100%"
   height="100%"
   viewBox="0 0 560.000 420.000"
   version="1.1"
   id="svg2"
   inkscape:version="0.47 r22583"
   sodipodi:docname="nl_yy1617_5_B_conspecific_stft.svg">
  <metadata
     id="metadata175">
    <rdf:RDF>
      <cc:Work
         rdf:about="">
        <dc:format>image/svg+xml</dc:format>
        <dc:type
           rdf:resource="http://purl.org/dc/dcmitype/StillImage" />
      </cc:Work>
    </rdf:RDF>
  </metadata>
  <defs
     id="defs173">
    <inkscape:perspective
       sodipodi:type="inkscape:persp3d"
       inkscape:vp_x="0 : 210 : 1"
       inkscape:vp_y="0 : 1000 : 0"
       inkscape:vp_z="560 : 210 : 1"
       inkscape:persp3d-origin="280 : 140 : 1"
       id="perspective177" />
    <clipPath
       id="ID000057">
      <rect
         id="rect11"
         height="342.300"
         width="434.000"
         y="31.500"
         x="72.800" />
    </clipPath>
  </defs>
  <sodipodi:namedview
     pagecolor="#ffffff"
     bordercolor="#666666"
     borderopacity="1"
     objecttolerance="10"
     gridtolerance="10"
     guidetolerance="10"
     inkscape:pageopacity="0"
     inkscape:pageshadow="2"
     inkscape:window-width="1280"
     inkscape:window-height="949"
     id="namedview171"
     showgrid="false"
     inkscape:zoom="0.56190476"
     inkscape:cx="280"
     inkscape:cy="210"
     inkscape:window-x="0"
     inkscape:window-y="0"
     inkscape:window-maximized="1"
     inkscape:current-layer="svg2" />
  <desc
     id="desc4">Matlab Figure Converted by PLOT2SVG written by Juerg Schwizer</desc>
  <g
     clip-path="url(#ID000057)"
     id="g17">
    <polyline
       points="72.800,373.800 77.140,373.800 81.480,373.800 85.820,373.800 90.160,373.800 94.500,373.800 98.840,373.800 103.180,373.800 107.520,373.800 111.860,373.800 116.200,373.800 120.540,373.800 124.880,373.800 129.220,373.800 133.560,373.800 137.900,373.799 142.240,373.799 146.580,373.798 150.920,373.797 155.260,373.795 159.600,373.793 163.940,373.789 168.280,373.783 172.620,373.775 176.960,373.765 181.300,373.749 185.640,373.729 189.980,373.701 194.320,373.664 198.660,373.615 203.000,373.551 207.340,373.470 211.680,373.366 216.020,373.234 220.360,373.070 224.700,372.868 229.040,372.619 233.380,372.317 237.720,371.954 242.060,371.519 246.400,371.004 250.740,370.397 255.080,369.689 259.420,368.867 263.760,367.920 268.100,366.836 272.440,365.603 276.780,364.208 281.120,362.641 285.460,360.888 289.800,358.940 294.140,356.784 298.480,354.412 302.820,351.814 307.160,348.982 311.500,345.909 315.840,342.587 320.180,339.013 324.520,335.183 328.860,331.094 333.200,326.744 337.540,322.134 341.880,317.266 346.220,312.141 350.560,306.763 354.900,301.139 359.240,295.273 363.580,289.173 367.920,282.848 372.260,276.306 376.600,269.557 380.940,262.613 385.280,255.484 389.620,248.183 393.960,240.722 398.300,233.114 402.640,225.371 406.980,217.508 411.320,209.537 415.660,201.472 420.000,193.326 424.340,185.113 428.680,176.846 433.020,168.537 437.360,160.200 441.700,151.846 446.040,143.487 450.380,135.135 454.720,126.801 459.060,118.495 463.400,110.227 467.740,102.007 472.080,93.844 476.420,85.747 480.760,77.723 485.100,69.780 489.440,61.924 493.780,54.163 498.120,46.502 502.460,38.946 506.800,31.500 "
       id="polyline19"
       style="fill:none;stroke:#000000;stroke-width:0.5pt;stroke-dasharray:none" />
    <g
       id="g21" />
  </g>
  <g
     transform="translate(289.3,23.593)"
     id="g23">
    <g
       id="g25">
      <text
         x="0"
         y="0"
         font-size="10.0pt"
         id="text27"
         style="font-size:12.5px;text-anchor:middle;fill:#000000;font-family:Helvetica">Output NL | b=-5.619313 | c=-13.768822</text>
    </g>
  </g>
  <polyline
     points="72.800,373.800 506.800,373.800 "
     id="polyline31"
     style="fill:none;stroke:#000000;stroke-width:0.5pt;stroke-dasharray:none" />
  <polyline
     points="80.431,373.800 80.431,368.200 "
     id="polyline33"
     style="fill:none;stroke:#000000;stroke-width:0.5pt;stroke-dasharray:none" />
  <polyline
     points="160.970,373.800 160.970,368.200 "
     id="polyline35"
     style="fill:none;stroke:#000000;stroke-width:0.5pt;stroke-dasharray:none" />
  <polyline
     points="241.509,373.800 241.509,368.200 "
     id="polyline37"
     style="fill:none;stroke:#000000;stroke-width:0.5pt;stroke-dasharray:none" />
  <polyline
     points="322.048,373.800 322.048,368.200 "
     id="polyline39"
     style="fill:none;stroke:#000000;stroke-width:0.5pt;stroke-dasharray:none" />
  <polyline
     points="402.587,373.800 402.587,368.200 "
     id="polyline41"
     style="fill:none;stroke:#000000;stroke-width:0.5pt;stroke-dasharray:none" />
  <polyline
     points="483.126,373.800 483.126,368.200 "
     id="polyline43"
     style="fill:none;stroke:#000000;stroke-width:0.5pt;stroke-dasharray:none" />
  <g
     transform="translate(80.431,386.8)"
     id="g45">
    <g
       id="g47">
      <text
         x="0"
         y="0"
         font-size="10.0pt"
         id="text49"
         style="font-size:12.5px;text-anchor:middle;fill:#000000;font-family:Helvetica">-0.1</text>
    </g>
  </g>
  <g
     transform="translate(160.97,386.8)"
     id="g51">
    <g
       id="g53">
      <text
         x="0"
         y="0"
         font-size="10.0pt"
         id="text55"
         style="font-size:12.5px;text-anchor:middle;fill:#000000;font-family:Helvetica">-0.05</text>
    </g>
  </g>
  <g
     transform="translate(241.509,386.8)"
     id="g57">
    <g
       id="g59">
      <text
         x="0"
         y="0"
         font-size="10.0pt"
         id="text61"
         style="font-size:12.5px;text-anchor:middle;fill:#000000;font-family:Helvetica">0</text>
    </g>
  </g>
  <g
     transform="translate(322.048,386.8)"
     id="g63">
    <g
       id="g65">
      <text
         x="0"
         y="0"
         font-size="10.0pt"
         id="text67"
         style="font-size:12.5px;text-anchor:middle;fill:#000000;font-family:Helvetica">0.05</text>
    </g>
  </g>
  <g
     transform="translate(402.587,386.8)"
     id="g69">
    <g
       id="g71">
      <text
         x="0"
         y="0"
         font-size="10.0pt"
         id="text73"
         style="font-size:12.5px;text-anchor:middle;fill:#000000;font-family:Helvetica">0.1</text>
    </g>
  </g>
  <g
     transform="translate(483.126,386.8)"
     id="g75">
    <g
       id="g77">
      <text
         x="0"
         y="0"
         font-size="10.0pt"
         id="text79"
         style="font-size:12.5px;text-anchor:middle;fill:#000000;font-family:Helvetica">0.15</text>
    </g>
  </g>
  <polyline
     points="72.800,373.800 72.800,31.500 "
     id="polyline81"
     style="fill:none;stroke:#000000;stroke-width:0.5pt;stroke-dasharray:none" />
  <polyline
     points="72.800,343.174 78.400,343.174 "
     id="polyline83"
     style="fill:none;stroke:#000000;stroke-width:0.5pt;stroke-dasharray:none" />
  <polyline
     points="72.800,312.549 78.400,312.549 "
     id="polyline85"
     style="fill:none;stroke:#000000;stroke-width:0.5pt;stroke-dasharray:none" />
  <polyline
     points="72.800,281.923 78.400,281.923 "
     id="polyline87"
     style="fill:none;stroke:#000000;stroke-width:0.5pt;stroke-dasharray:none" />
  <polyline
     points="72.800,251.297 78.400,251.297 "
     id="polyline89"
     style="fill:none;stroke:#000000;stroke-width:0.5pt;stroke-dasharray:none" />
  <polyline
     points="72.800,220.671 78.400,220.671 "
     id="polyline91"
     style="fill:none;stroke:#000000;stroke-width:0.5pt;stroke-dasharray:none" />
  <polyline
     points="72.800,190.046 78.400,190.046 "
     id="polyline93"
     style="fill:none;stroke:#000000;stroke-width:0.5pt;stroke-dasharray:none" />
  <polyline
     points="72.800,159.420 78.400,159.420 "
     id="polyline95"
     style="fill:none;stroke:#000000;stroke-width:0.5pt;stroke-dasharray:none" />
  <polyline
     points="72.800,128.794 78.400,128.794 "
     id="polyline97"
     style="fill:none;stroke:#000000;stroke-width:0.5pt;stroke-dasharray:none" />
  <polyline
     points="72.800,98.168 78.400,98.168 "
     id="polyline99"
     style="fill:none;stroke:#000000;stroke-width:0.5pt;stroke-dasharray:none" />
  <polyline
     points="72.800,67.543 78.400,67.543 "
     id="polyline101"
     style="fill:none;stroke:#000000;stroke-width:0.5pt;stroke-dasharray:none" />
  <polyline
     points="72.800,36.917 78.400,36.917 "
     id="polyline103"
     style="fill:none;stroke:#000000;stroke-width:0.5pt;stroke-dasharray:none" />
  <g
     transform="translate(67.8,346.174)"
     id="g105">
    <g
       id="g107">
      <text
         x="0"
         y="0"
         font-size="10.0pt"
         id="text109"
         style="font-size:12.5px;text-anchor:end;fill:#000000;font-family:Helvetica">0.05</text>
    </g>
  </g>
  <g
     transform="translate(67.8,315.549)"
     id="g111">
    <g
       id="g113">
      <text
         x="0"
         y="0"
         font-size="10.0pt"
         id="text115"
         style="font-size:12.5px;text-anchor:end;fill:#000000;font-family:Helvetica">0.1</text>
    </g>
  </g>
  <g
     transform="translate(67.8,284.923)"
     id="g117">
    <g
       id="g119">
      <text
         x="0"
         y="0"
         font-size="10.0pt"
         id="text121"
         style="font-size:12.5px;text-anchor:end;fill:#000000;font-family:Helvetica">0.15</text>
    </g>
  </g>
  <g
     transform="translate(67.8,254.297)"
     id="g123">
    <g
       id="g125">
      <text
         x="0"
         y="0"
         font-size="10.0pt"
         id="text127"
         style="font-size:12.5px;text-anchor:end;fill:#000000;font-family:Helvetica">0.2</text>
    </g>
  </g>
  <g
     transform="translate(67.8,223.671)"
     id="g129">
    <g
       id="g131">
      <text
         x="0"
         y="0"
         font-size="10.0pt"
         id="text133"
         style="font-size:12.5px;text-anchor:end;fill:#000000;font-family:Helvetica">0.25</text>
    </g>
  </g>
  <g
     transform="translate(67.8,193.046)"
     id="g135">
    <g
       id="g137">
      <text
         x="0"
         y="0"
         font-size="10.0pt"
         id="text139"
         style="font-size:12.5px;text-anchor:end;fill:#000000;font-family:Helvetica">0.3</text>
    </g>
  </g>
  <g
     transform="translate(67.8,162.42)"
     id="g141">
    <g
       id="g143">
      <text
         x="0"
         y="0"
         font-size="10.0pt"
         id="text145"
         style="font-size:12.5px;text-anchor:end;fill:#000000;font-family:Helvetica">0.35</text>
    </g>
  </g>
  <g
     transform="translate(67.8,131.794)"
     id="g147">
    <g
       id="g149">
      <text
         x="0"
         y="0"
         font-size="10.0pt"
         id="text151"
         style="font-size:12.5px;text-anchor:end;fill:#000000;font-family:Helvetica">0.4</text>
    </g>
  </g>
  <g
     transform="translate(67.8,101.168)"
     id="g153">
    <g
       id="g155">
      <text
         x="0"
         y="0"
         font-size="10.0pt"
         id="text157"
         style="font-size:12.5px;text-anchor:end;fill:#000000;font-family:Helvetica">0.45</text>
    </g>
  </g>
  <g
     transform="translate(67.8,70.543)"
     id="g159">
    <g
       id="g161">
      <text
         x="0"
         y="0"
         font-size="10.0pt"
         id="text163"
         style="font-size:12.5px;text-anchor:end;fill:#000000;font-family:Helvetica">0.5</text>
    </g>
  </g>
  <g
     transform="translate(67.8,39.917)"
     id="g165">
    <g
       id="g167">
      <text
         x="0"
         y="0"
         font-size="10.0pt"
         id="text169"
         style="font-size:12.5px;text-anchor:end;fill:#000000;font-family:Helvetica">0.55</text>
    </g>
  </g>
</svg>
